HIERARCHY
ROOT Bip001_Pelvis
{
  OFFSET 32.8599 95.8771 -27.9544
  CHANNELS 6 Xposition Yposition Zposition Zrotation Xrotation Yrotation
  JOINT Bip001_Spine
  {
    OFFSET 1.4188e-005 10.2191 -0.0116013
    CHANNELS 3 Zrotation Xrotation Yrotation
    JOINT Bip001_L_Thigh
    {
      OFFSET 11.0458 -10.2191 0.0116197
      CHANNELS 3 Zrotation Xrotation Yrotation
      JOINT Bip001_L_Calf
      {
        OFFSET -0.707118 -44.0221 0.360014
        CHANNELS 3 Zrotation Xrotation Yrotation
        JOINT Bip001_L_Foot
        {
          OFFSET -0.651902 -40.5938 -3.56146
          CHANNELS 3 Zrotation Xrotation Yrotation
          JOINT Bip001_L_Toe0
          {
            OFFSET 0.0530839 -10.2181 13.1504
            CHANNELS 3 Zrotation Xrotation Yrotation
            End Site
            {
              OFFSET -1.02532e-005 0 7.55606
            }
          }
        }
      }
    }
    JOINT Bip001_R_Thigh
    {
      OFFSET -11.0458 -10.2191 0.0115893
      CHANNELS 3 Zrotation Xrotation Yrotation
      JOINT Bip001_R_Calf
      {
        OFFSET 0.706994 -44.0221 0.35984
        CHANNELS 3 Zrotation Xrotation Yrotation
        JOINT Bip001_R_Foot
        {
          OFFSET 0.651787 -40.5938 -3.5613
          CHANNELS 3 Zrotation Xrotation Yrotation
          JOINT Bip001_R_Toe0
          {
            OFFSET -0.0531479 -10.2181 13.1504
            CHANNELS 3 Zrotation Xrotation Yrotation
            End Site
            {
              OFFSET -1.02894e-005 0 7.55606
            }
          }
        }
      }
    }
    JOINT Bip001_Spine1
    {
      OFFSET 1.87041e-005 14.5736 1.08638
      CHANNELS 3 Zrotation Xrotation Yrotation
      JOINT Bip001_Spine2
      {
        OFFSET 2.24614e-005 14.5058 -1.69078
        CHANNELS 3 Zrotation Xrotation Yrotation
        JOINT Bip001_Neck
        {
          OFFSET 2.20278e-005 15.3945 -0.489414
          CHANNELS 3 Zrotation Xrotation Yrotation
          JOINT Bip001_L_Clavicle
          {
            OFFSET 6.06036 -0.000579998 0.00836775
            CHANNELS 3 Zrotation Xrotation Yrotation
            JOINT Bip001_L_UpperArm
            {
              OFFSET 11.5509 -0.0600302 0.00193952
              CHANNELS 3 Zrotation Xrotation Yrotation
              JOINT Bip001_L_Forearm
              {
                OFFSET 25.9523 0.0806089 -2.15551
                CHANNELS 3 Zrotation Xrotation Yrotation
                JOINT Bip001_L_Hand
                {
                  OFFSET 32.2475 0.153767 1.63968
                  CHANNELS 3 Zrotation Xrotation Yrotation
                  JOINT Bip001_L_Finger0
                  {
                    OFFSET 6.04639 -2.20976 5.90322
                    CHANNELS 3 Zrotation Xrotation Yrotation
                    End Site
                    {
                      OFFSET 4.22375 -1.43895 0.606486
                    }
                  }
                  JOINT Bip001_L_Finger1
                  {
                    OFFSET 11.0826 -0.704819 -0.198153
                    CHANNELS 3 Zrotation Xrotation Yrotation
                    End Site
                    {
                      OFFSET 6.20027 -0.397518 -0.0787166
                    }
                  }
                }
              }
            }
          }
          JOINT Bip001_R_Clavicle
          {
            OFFSET -6.06036 -0.000563197 0.00835105
            CHANNELS 3 Zrotation Xrotation Yrotation
            JOINT Bip001_R_UpperArm
            {
              OFFSET -11.5509 -0.0599978 0.00190698
              CHANNELS 3 Zrotation Xrotation Yrotation
              JOINT Bip001_R_Forearm
              {
                OFFSET -25.9523 0.0806819 -2.1559
                CHANNELS 3 Zrotation Xrotation Yrotation
                JOINT Bip001_R_Hand
                {
                  OFFSET -32.2476 0.153857 1.63991
                  CHANNELS 3 Zrotation Xrotation Yrotation
                  JOINT Bip001_R_Finger0
                  {
                    OFFSET -6.04642 -2.20975 5.9032
                    CHANNELS 3 Zrotation Xrotation Yrotation
                    End Site
                    {
                      OFFSET -4.22376 -1.43894 0.606473
                    }
                  }
                  JOINT Bip001_R_Finger1
                  {
                    OFFSET -11.0826 -0.70479 -0.198183
                    CHANNELS 3 Zrotation Xrotation Yrotation
                    End Site
                    {
                      OFFSET -6.20028 -0.397501 -0.0787337
                    }
                  }
                }
              }
            }
          }
          JOINT Bip001_Head
          {
            OFFSET 1.09673e-005 11.2744 2.05948
            CHANNELS 3 Zrotation Xrotation Yrotation
            End Site
            {
              OFFSET 2.89576e-005 20.8808 -2.77728e-005
            }
          }
        }
      }
    }
  }
}
MOTION
Frames:	12
Frame Time:	0.04
33.0291 95.8285 -28.1375 0.693609 -0.510969 -0.185315 -0.215065 2.16054 -0.0068887 4.26519 -1.76331 7.96326 -0.218722 5.98254 -10.2764 5.83917 -1.48838 -0.222116 -1.13931 -5.62837 2.52574 -3.76609 -3.67237 -1.66157 0.0906648 11.7588 0.617653 -5.32872 -10.3781 3.31517 2.10038 -7.12855 2.15178 -0.40717 4.34451 -0.00170803 -0.407186 4.34452 -0.00151361 3.56971 -7.25613 -2.31127 -26.8838 7.88698 0.477505 -56.8251 40.288 -0.137177 13.9816 9.26989 -16.6022 10.8641 1.67618 -6.58089 -3.18055e-015 6.36111e-015 -1.59028e-015 -3.18055e-015 9.54167e-015 -1.59028e-015 23.5751 13.1038 12.2195 57.0068 33.7604 0.173482 -6.88992 6.75688 4.07094 -7.93669 1.43258 7.86798 -8.82781e-032 -6.36111e-015 -7.95139e-016 -1.59028e-015 -6.36111e-015 -0 -3.0729 -7.17328 -0.906281 
33.0206 95.8354 -28.1336 0.708375 -0.51787 -0.254715 -0.218419 2.15841 -0.0115504 4.29077 -1.71955 7.68662 -0.235682 6.01183 -9.85162 5.33332 -1.81866 -0.185611 -1.2975 -5.31337 2.68393 -3.76834 -3.62415 -1.70273 0.0905263 11.702 0.607557 -5.28757 -10.3837 3.44664 2.09969 -7.11041 2.15169 -0.436794 4.31684 -0.0145908 -0.436814 4.31683 -0.0148384 3.47612 -7.35572 -2.2545 -26.9383 7.97529 0.585345 -56.5108 40.1106 0.0386379 13.8961 8.73113 -16.8271 10.3443 1.80942 -6.34141 6.36111e-015 6.36111e-015 -0 6.36111e-015 9.54167e-015 -1.59028e-015 23.7499 13.2262 12.2384 57.0969 34.5782 0.0128769 -6.65787 5.98278 4.07652 -7.61075 0.836342 8.33805 1.59028e-015 -3.18055e-015 -7.95139e-016 3.18055e-015 -6.36111e-015 -7.95139e-016 -3.00035 -7.23484 -0.890459 
33.0003 95.8283 -28.12 0.710228 -0.54595 -0.240363 -0.232102 2.15396 -0.0263006 4.30962 -1.6913 7.84301 -0.251706 6.00624 -10.1397 5.7063 -1.56823 -0.211936 -1.27295 -5.51539 2.66166 -3.73233 -3.60858 -1.77656 0.0527696 11.755 0.601564 -5.27075 -10.424 3.51556 2.10286 -7.13567 2.16958 -0.46406 4.31079 -0.045648 -0.463872 4.3108 -0.0453702 3.19219 -7.5783 -2.1644 -26.6861 8.23732 0.590897 -56.4517 39.8706 0.217202 13.982 8.4013 -16.9877 10.1929 1.83763 -6.28136 -3.18055e-015 3.18055e-015 -0 -3.18055e-015 3.18056e-015 -0 24.1743 13.5276 12.3788 57.4514 34.7966 -0.271359 -6.58315 5.91262 3.97277 -7.88031 0.67074 8.12792 -3.18055e-015 3.18055e-015 -0 -1.59028e-015 3.18056e-015 -7.95139e-016 -2.75373 -6.96188 -0.907209 
32.9955 95.8283 -28.0867 0.727539 -0.622455 -0.179836 -0.257342 2.14838 -0.0263986 4.30664 -1.54959 7.53857 -0.271476 5.89245 -9.92306 5.80394 -1.42917 -0.224615 -1.21595 -5.61591 2.60949 -3.71695 -3.50137 -1.89686 0.0296578 11.7752 0.601233 -5.25937 -10.449 3.56237 2.10284 -7.13391 2.16996 -0.514126 4.29683 -0.0394271 -0.514265 4.29684 -0.0391829 3.13481 -7.52243 -2.17482 -26.641 8.20684 0.512116 -56.3993 39.8269 0.309827 13.9101 7.62925 -16.9524 10.0468 1.94708 -5.98709 6.36111e-015 6.36111e-015 -1.59028e-015 6.36111e-015 3.18056e-015 -1.59028e-015 24.2363 13.587 12.7095 57.9289 34.9198 -0.565607 -6.49148 5.87149 3.65969 -7.79853 0.560351 8.28892 0 0 -0 -0 0 7.95139e-016 -2.67402 -6.86064 -0.94041 
32.991 95.8297 -28.0629 0.740526 -0.673733 -0.0413754 -0.273679 2.13783 -0.0320646 4.3321 -1.506 7.16504 -0.290023 5.92008 -9.60102 5.53037 -1.63125 -0.203231 -1.27342 -5.43376 2.66218 -3.70894 -3.35616 -1.99028 0.0314784 11.6995 0.594811 -5.28514 -10.469 3.54768 2.10205 -7.13658 2.16277 -0.547886 4.27577 -0.0527505 -0.547274 4.27577 -0.0532936 3.02651 -7.56011 -2.15855 -26.5216 8.24023 0.558915 -56.4772 39.8488 0.517259 14.1025 7.10309 -17.08 9.96008 1.85978 -5.91999 3.18055e-015 -3.18055e-015 1.59028e-015 9.54166e-015 -3.18056e-015 1.59028e-015 24.2149 13.6599 12.8823 58.5348 35.5 -1.25881 -6.53753 5.37623 3.66612 -7.42152 0.308328 8.87606 1.59028e-015 3.18055e-015 -7.95139e-016 1.32417e-031 3.18056e-015 -2.38542e-015 -2.52926 -6.68316 -0.972845 
32.8383 95.8377 -28.1444 0.355414 -0.409848 0.295652 -0.204634 2.05608 -0.0734144 4.996 -2.16201 6.68818 -0.654806 6.72412 -9.20638 5.20646 -2.21706 -0.160823 -1.36322 -5.18482 2.70559 -3.18115 -3.31787 -1.64773 -0.0226949 11.2147 0.500003 -5.43919 -10.0999 3.05125 2.10279 -7.14905 2.16504 -0.407023 4.11241 -0.13961 -0.407024 4.11241 -0.13961 2.6268 -7.69314 -2.10615 -26.1969 8.36427 0.720993 -56.5682 39.7493 0.983889 14.432 6.78907 -17.6519 10.1844 1.84494 -5.81689 -6.36111e-015 -1.27222e-014 1.59028e-015 -3.18055e-015 -9.54167e-015 3.18055e-015 24.5526 13.9242 13.2861 59.0413 35.9676 -2.81723 -6.85915 4.96045 4.53163 -7.71392 2.0565 10.54 -4.41391e-032 3.18055e-015 7.95139e-016 -4.41391e-032 3.18056e-015 7.95139e-016 -2.18398 -6.29249 -1.06638 
32.8872 95.8348 -28.0803 0.489575 -0.573314 0.383228 -0.228029 2.08096 -0.0410257 4.81906 -1.92757 7.01148 -0.548279 6.57992 -9.67371 5.15049 -2.22833 -0.159774 -1.39925 -5.12437 2.74561 -3.33177 -3.17027 -1.78138 -0.000451122 11.3219 0.463575 -5.44878 -10.2073 3.03662 2.11815 -7.20036 2.18122 -0.454948 4.16206 -0.0727608 -0.454956 4.16206 -0.0727613 2.06633 -8.20688 -2.09755 -25.7218 8.80909 1.12814 -56.6244 39.8352 1.18924 14.6877 6.20484 -18.1054 10.3285 1.78368 -5.79751 0 0 -0 0 3.18056e-015 -0 25.2655 14.5858 13.5462 58.8561 35.3199 -4.61945 -7.43687 5.01617 5.81904 -9.76312 6.68503 13.4438 4.41391e-032 3.18055e-015 -7.95139e-016 3.18055e-015 0 -1.59028e-015 -1.71901 -5.665 -1.26328 
33.0096 95.8278 -28.0537 0.787659 -0.675725 0.668887 -0.286837 2.10617 -0.026829 4.40523 -1.73037 7.1861 -0.3606 6.23131 -10.1675 5.21684 -1.98577 -0.17414 -1.35675 -5.1826 2.68156 -3.69669 -3.16008 -2.1791 0.0381249 11.6384 0.419265 -5.42402 -10.4425 3.14976 2.13034 -7.25371 2.21085 -0.573169 4.21247 -0.0447942 -0.573177 4.21247 -0.0447947 1.75544 -8.5748 -2.17318 -25.3562 9.08195 1.51062 -56.7175 39.8767 1.45977 14.9772 5.33503 -18.7883 10.3375 1.75418 -5.62716 -3.18055e-015 1.27222e-014 -4.77083e-015 -3.18055e-015 6.36111e-015 -4.77083e-015 25.7271 15.0293 13.5845 57.9621 34.3713 -6.03223 -8.26998 5.76205 7.49794 -11.719 11.1118 15.2562 3.18055e-015 3.18055e-015 7.95139e-016 3.18055e-015 0 7.95139e-016 -1.48085 -5.47499 -1.45021 
33.0279 95.8361 -28.0765 0.768091 -0.570935 0.961727 -0.292735 2.08402 -0.0289183 4.49954 -1.90872 7.36766 -0.453053 6.31987 -10.5549 5.11859 -2.10597 -0.16536 -1.38017 -5.0814 2.67716 -3.67424 -3.1383 -2.1656 0.0897362 11.5018 0.435974 -5.50407 -10.3368 2.85357 2.13849 -7.27006 2.20851 -0.58305 4.16806 -0.0474648 -0.582271 4.16808 -0.0473206 1.57475 -8.6348 -2.2151 -25.1847 9.05462 1.83042 -56.6762 39.8933 1.77356 15.2229 4.46019 -19.3737 10.5487 1.68611 -5.31794 -3.18055e-015 -3.18055e-015 -0 -3.18055e-015 3.18056e-015 -0 26.3828 15.2076 13.6179 56.6502 33.0377 -7.65405 -10.7134 5.63385 10.0712 -12.6152 15.0955 16.2848 -3.18055e-015 1.59028e-015 -7.95139e-016 0 3.18056e-015 -0 -1.33733 -5.48375 -1.55659 
33.0575 95.8183 -28.0822 0.756747 -0.546884 1.3651 -0.297196 2.0818 -0.0770041 4.50338 -2.03583 7.39453 -0.521404 6.34768 -11.1043 5.96775 -1.55468 -0.223547 -1.15753 -5.59533 2.53499 -3.64018 -3.09963 -2.12613 0.115613 11.5136 0.488262 -5.59733 -10.3063 2.42248 2.15064 -7.29781 2.21125 -0.591174 4.1639 -0.142323 -0.591612 4.1639 -0.142866 1.43947 -8.72633 -2.21644 -25.1172 9.06486 2.14672 -56.5232 39.8366 1.9567 15.4468 3.80714 -19.6382 10.7219 1.76138 -5.09005 3.18055e-015 -3.18055e-015 3.18055e-015 6.36111e-015 -6.36111e-015 3.18055e-015 26.8454 15.396 13.6905 54.5172 29.4195 -9.0167 -13.255 3.32536 14.6234 -12.5433 17.5064 16.3085 3.18055e-015 -3.18055e-015 7.95139e-016 -0 -3.18056e-015 -0 -1.16818 -5.36453 -1.61627 
33.1879 95.8407 -28.2332 0.886271 -0.197774 1.54243 -0.336094 2.02262 -0.0711025 4.2794 -2.41428 6.61813 -0.455423 6.25185 -10.406 5.46094 -1.69722 -0.198375 -1.30235 -5.28454 2.63616 -3.82783 -3.47843 -1.90559 0.216783 11.5571 0.518935 -5.72416 -10.1762 2.00001 2.17314 -7.36964 2.23358 -0.670301 4.04561 -0.130445 -0.670302 4.04561 -0.130445 1.28938 -8.79655 -2.25522 -25.0496 9.09255 2.312 -56.2858 39.6725 2.08821 15.5225 3.23245 -19.8429 10.7074 1.94349 -4.73207 1.76556e-031 -6.36111e-015 1.59028e-015 3.18055e-015 -9.54167e-015 4.77083e-015 26.6731 15.3762 13.5839 53.198 24.9354 -10.2229 -16.2598 -2.49568 21.1307 -11.9947 17.8722 15.7586 3.18055e-015 0 -1.59028e-015 6.36111e-015 -3.18056e-015 -3.18055e-015 -0.96421 -5.05612 -1.72217 
33.191 95.8363 -28.3215 0.914889 0.104136 2.09539 -0.358597 1.97615 -0.145735 4.34246 -2.91138 5.82177 -0.646444 6.42388 -10.0061 5.51558 -1.64495 -0.201841 -1.27123 -5.2748 2.62256 -3.76115 -3.71516 -1.95786 0.12418 11.604 0.305836 -5.7602 -10.145 1.80129 2.20328 -7.4573 2.2472 -0.713156 3.95322 -0.279132 -0.712976 3.95323 -0.279211 1.35979 -8.69556 -2.31261 -25.1316 8.92816 2.47255 -55.9556 39.6193 2.19597 15.5304 2.78403 -20.0274 10.754 2.15592 -4.40838 3.18055e-015 0 -1.59028e-015 6.36111e-015 0 -1.59028e-015 25.9904 15.1494 13.5639 52.4695 19.452 -10.7688 -19.4642 -8.80976 29.1116 -13.158 19.3658 16.5356 -9.54166e-015 3.18055e-015 3.18055e-015 -1.27222e-014 3.18056e-015 3.18055e-015 -0.946026 -5.16568 -1.77404 
